<?xml version="1.0" standalone="no"?>
<!DOCTYPE svg PUBLIC "-//W3C//DTD SVG 1.1//EN" "http://www.w3.org/Graphics/SVG/1.1/DTD/svg11.dtd" >
<svg xmlns="http://www.w3.org/2000/svg">
<metadata></metadata>
<defs>
<font id="harry_pregular" horiz-adv-x="997" >
<font-face units-per-em="2048" ascent="1638" descent="-410" />
<missing-glyph horiz-adv-x="700" />
<glyph horiz-adv-x="2048" />
<glyph horiz-adv-x="2048" />
<glyph unicode="&#xd;" horiz-adv-x="700" />
<glyph unicode=" "  horiz-adv-x="700" />
<glyph unicode="&#x09;" horiz-adv-x="700" />
<glyph unicode="&#xa0;" horiz-adv-x="700" />
<glyph unicode="!" horiz-adv-x="360" d="M2 1446h324q-63 -35 -54 -111q10 -78 23 -497q2 -82 -29 -242q-33 -176 -35 -211h-102q6 74 -20 231q-27 168 -27 213q0 381 -23 527q-10 63 -57 90zM76 141q4 -33 6 -63q15 -47 74 -51q27 18 63 18q8 0 26.5 -4t26.5 -4q23 0 23 186q-59 57 -139 66q-49 -53 -80 -148z " />
<glyph unicode="&#x22;" horiz-adv-x="745" d="M2 1446h324q-63 -35 -54 -111q2 -23 4 -22v18q-2 18 -2 12q-2 -6 0 -55q2 -80 -28 -149q-33 -76 -35 -119h-102q6 72 -21 141.5t-27 118.5q0 57 2 61q6 -12 3 -18q-2 4 -7 33q-10 63 -57 90zM391 1446h324q-63 -35 -53 -111q2 -23 4 -22v18q-2 18 -2 12q-2 -6 0 -55 q2 -80 -29 -149q-33 -76 -35 -119h-102q6 72 -20.5 141.5t-26.5 118.5q0 57 2 61q6 -12 2 -18q-2 4 -6 33q-11 63 -58 90z" />
<glyph unicode="$" horiz-adv-x="923" d="M8 1057q0 14 12 22l31 33l225 168q74 53 132 90l-17 260l166 -2v-186h8q10 0 17 -6l256 -283q53 -106 53 -141q0 -41 -51 -70l-203 -47l-2 14q23 20 53 37q10 4 14 33q-16 47 -143 147v-338q72 -72 158 -155q199 -197 198 -256q0 -20 -18 -37l-23 -4l3 -14 q-57 -45 -224 -168q-76 -58 -135 -95v-12l-4 10q-20 -14 -39 -24l-20 -426l-35 399q-35 -16 -58 -16q-10 0 -14 6l-256 285q-53 104 -53 139q0 41 49 69l72 43l155 33q-29 -25 -57 -47q-31 -31 -35 -61q14 -47 111 -166q39 -47 67 -74l-30 348l43 -55l-8 98q-45 49 -101 107 q-297 311 -297 342zM297 1100q0 -27 80 -117l-8 104l57 -51l-10 181q-18 6 -31 4q-27 -6 -57.5 -50.5t-30.5 -70.5zM514 487l2 -249q35 41 88 96l-16 -4q14 8 14 28q0 25 -88 129z" />
<glyph unicode="%" horiz-adv-x="1525" d="M31 944q-2 25 18 352q141 102 293 156l145 -100l17 -27q45 -43 53 -184q2 -21 10 -232q10 -51 -112 -114q-102 -53 -168 -62l-37 6q-207 160 -219 205zM221 1276l10 -416q14 -41 56 -59q61 18 84 59q0 412 -39 510l-66 -39q-35 -27 -45 -55zM223 -90l393 754l13 -68 l241 448l31 -73l258 456l156 -106l-553 -825l31 143l-293 -446l22 108zM958 215q-2 25 19 352q141 102 293 156l145 -100l17 -27q45 -43 53 -184q2 -21 10 -232q10 -51 -113 -114q-102 -53 -168 -62l-36 6q-207 160 -220 205zM1149 547l10 -416q14 -41 55 -59q61 18 84 59 q0 412 -38 510l-66 -39q-35 -27 -45 -55z" />
<glyph unicode="'" horiz-adv-x="360" d="M2 1446h324q-63 -35 -54 -111q2 -23 4 -22v18q-2 18 -2 12q-2 -6 0 -55q2 -80 -28 -149q-33 -76 -35 -119h-102q6 72 -21 141.5t-27 118.5q0 57 2 61q6 -12 3 -18q-2 4 -7 33q-10 63 -57 90z" />
<glyph unicode="(" horiz-adv-x="614" d="M68 264q0 795 16 1092q240 182 498 278h51l-70 -143q1 0 -155 -78q-55 -37 -72 -94l-4 -1378q12 -35 67 -84q49 -45 88 -64q16 -23 0 -121l-61 11q-92 76 -178 151q-156 137 -174 217q-6 141 -6 213z" />
<glyph unicode=")" horiz-adv-x="614" d="M68 1634l69 -143l156 -78q55 -37 72 -94l4 -1378q-12 -35 -64.5 -82t-91.5 -66q-16 -23 0 -121l61 11q92 76 179 151q156 137 174 217q6 141 6 213q0 795 -17 1092q-240 182 -497 278h-51z" />
<glyph unicode="*" horiz-adv-x="770" d="M51 1071l41 72l264 -154l-10 90l29 -20l-17 227h80l2 -301l80 62l-2 -35l182 129l41 -74l-280 -168l131 -76l-47 6l174 -118l-301 135l2 -166l-19 43l-12 -213l-39 350l-129 -78l29 37l-184 -94l247 190l-92 43l31 15z" />
<glyph unicode="+" horiz-adv-x="851" d="M47 618l8 195q27 -41 74 -41q14 0 29 4h202l-8 60l45 -27l-26 303l127 -2l2 -334h241q31 0 64 70l-8 -248q-29 47 -97 49l-200 6v-114l-33 67l-4 10l4 -309l-29 60l-18 -283l-66 485l33 -26l-14 114l-211 7q-10 2 -21 2q-53 0 -94 -48z" />
<glyph unicode="," horiz-adv-x="468" d="M78 -209l12 223l27 -53l24 164l47 -51l52 172l151 -2l-69 -240l-25 74l-76 -170l-14 63z" />
<glyph unicode="-" horiz-adv-x="989" d="M61 666l410 63l-22 -33l247 33l-22 -43l254 27v-123l-484 -2l58 33l8 4l-260 -7l49 29z" />
<glyph unicode="." horiz-adv-x="468" d="M84 166l8 -90q59 0 82 -80l119 -4q-6 43 21.5 69.5t70.5 26.5l-12 98q-61 -6 -88 58l-115 -17q-12 -39 -20 -47q-16 -16 -66 -14z" />
<glyph unicode="/" horiz-adv-x="923" d="M-84 -90l393 754l13 -68l241 448l31 -73l258 456l156 -106l-553 -825l30 143l-292 -446l22 108z" />
<glyph unicode="0" d="M68 633q0 262 16 559q240 182 498 278h51l182 -227q78 -80 90 -332q7 -127 17 -637q12 -53 -121 -161q-162 -131 -314 -154l-61 10q-92 76 -178 152q-156 137 -174 217q-6 141 -6 295zM332 227q12 -35 67 -84q49 -45 88 -63q154 49 185 106l-8 594q0 70 -13 174 l-174 -374l12 96l-137 -301l10 74l-30 -58v-164zM334 489l74 203l6 -45l114 303l15 -49l84 211q-25 109 -64 211q-57 -25 -155 -74q-55 -37 -72 -94z" />
<glyph unicode="1" horiz-adv-x="589" d="M25 1163q360 158 432 285l4 -911l-60 110l-6 15l8 -490l-51 94l-35 -450l-114 774l57 -45l-61 465l80 -41l-17 170z" />
<glyph unicode="2" horiz-adv-x="907" d="M55 -2l76 465l8 -2l2 16l195 152q57 -80 145 -113q37 18 82 66.5t55 83.5l-4 479q-14 59 -63 96q-35 20 -102 43l-89 31q-61 -193 -61 -225q0 -10 2 -19q-4 -14 -4 -29q0 -55 47 -124l-250 219q18 66 47 98l160 229h45q332 -143 490 -280q2 -57 2 -240q0 -25 4 -84 q4 -51 2 -84q-16 -82 -152 -219q-59 -61 -157 -151l-54 -11q-41 6 -147 80l-43 -274l360 -4q53 0 104.5 36.5t78.5 85.5l-68 -327q-57 8 -205 10q-172 2 -262 0z" />
<glyph unicode="3" horiz-adv-x="858" d="M90 1077v146l227 112l258 103l187 -219l8 -383l-121 -105l109 -119l2 -516l-221 -119h-9l-286 15l-150 194q35 135 238 168q-70 -88 -70 -106q0 -23 19 -47l59 -109l182 12l41 54l-22 530l-209 -4l28 109l162 8l41 53l-24 477l-228 -88l2 -82q-6 -14 -6 -33 q0 -78 84 -147q-96 16 -149 31q-102 27 -152 65z" />
<glyph unicode="4" horiz-adv-x="1087" d="M63 362l181 332l-119 -49l190 420l-90 -53l275 510l-56 -305l91 96l-109 -381l70 86l71 76l-131 -549l135 2q-2 125 -12 268h184q6 -113 5 -262q98 14 198 104l-8 -297q-84 6 -195 11q-6 -156 -20 -260q-10 -76 53 -111h-282q47 27 57 90q18 117 22 283q-227 0 -510 -11z " />
<glyph unicode="5" d="M88 315l285 220q-53 -72 -54 -125q0 -14 5 -29q-2 -8 -2 -19q0 -33 71 -223q76 20 217 74q55 37 72 94l4 477q-12 35 -64.5 82t-91.5 66q-158 -51 -206 -113v-26l16 -60l-240 53l-2 15h-8l6 624q537 0 760 27l76 -326q-31 51 -90.5 87t-116.5 36l-406 -4l3 -272 q106 66 208 80l62 -11q92 -76 178 -151q156 -137 174 -217q2 -33 -4 -84q-4 -57 -4 -82q0 -182 -2 -238q-180 -137 -559 -278h-51l-183 227q-33 33 -53 96z" />
<glyph unicode="6" horiz-adv-x="923" d="M39 883q-2 78 2 223q2 12 10 18l29 35l170 129q215 164 262 164q8 0 14 -6l232 -285q47 -106 47 -141q0 -43 -45 -72l-185 -47l-2 14q23 23 50 37q8 4 12 33q-14 49 -127 150q-119 104 -160 94q-14 -4 -29 -21l9 2q-12 -12 -27 -24l-4 -8q-29 -43 -29 -70q0 -6 -6 -16 q-6 -59 -12 -172q184 -33 364 -123q209 -104 207 -201q0 -55 2 -121l4 -94q0 -23 -16 -37l-20 -4l2 -14q-51 -45 -203 -170q-199 -164 -262 -164q-10 0 -13 6l-231 285q-29 61 -45 600zM244 723q2 -63 12 -222t45 -206q94 -127 125 -117q12 23 90 105l121 127l-14 -2 q12 8 12 28q0 152 -209 226q-55 20 -182 61z" />
<glyph unicode="7" horiz-adv-x="1087" d="M109 1100l8 297q145 -12 379 -13q211 0 495 11l-297 -568l119 50l-252 -529l90 53l-346 -698l101 424l-91 -96l197 559l-70 -86l-71 -76l247 784l-282 -6q-111 -2 -227 -106z" />
<glyph unicode="8" horiz-adv-x="858" d="M94 500q0 111 17 127l137 145q6 12 -44 58.5t-73 56.5v356l227 113l217 82l230 -305l-45 -422l-111 -62l156 -172l-45 -381l-221 -119h-9l-286 15l-140 176q4 8 -2 123q-8 150 -8 209zM283 195l57 -103l182 12l41 54l-22 448l-209 78zM352 1264l8 -471l162 -74l41 53 l-24 559z" />
<glyph unicode="9" horiz-adv-x="923" d="M16 383q0 43 45 70l185 49l2 -15q-23 -23 -49 -36q-8 -4 -13 -33q14 -45 129 -148q74 -66 150 -65q55 0 84 28l-10 -2q12 12 26 25l4 6q29 43 29 72q0 6 6 14q4 117 12 295q-72 -27 -159 -27q-115 0 -250 56q-164 68 -162 168q0 59 -2 125l-4 90q0 20 16 37l21 4l-2 14 q106 90 202 168q199 162 263 162q10 0 12 -4l231 -285q29 -59 45 -594q2 -78 -2 -223q-2 -10 -10 -17l-29 -34l-170 -129q-213 -162 -260 -162q-10 0 -16 6l-277 246q-47 106 -47 139zM229 1024l15 4q-12 -8 -13 -29q0 -190 226 -190q80 0 166 29q-6 119 -13 159 q-14 100 -45 144q-92 125 -125 114q-10 -20 -90 -104z" />
<glyph unicode=":" horiz-adv-x="505" d="M102 166l9 -90q59 0 82 -80l118 -4q-6 43 21.5 69.5t70.5 26.5l-12 98q-61 -6 -88 58l-115 -17q-12 -39 -20 -47q-16 -16 -66 -14zM102 821l9 -90q59 0 82 -80l118 -4q-6 43 21.5 69.5t70.5 26.5l-12 99q-61 -6 -88 57l-115 -16q-12 -39 -20 -47q-16 -16 -66 -15z" />
<glyph unicode=";" horiz-adv-x="493" d="M59 -209l13 223l26 -53l25 164l47 -51l51 172l152 -2l-70 -240l-24 74l-76 -170l-15 63zM135 821l8 -90q59 0 82 -80l119 -4q-6 43 20.5 69.5t71.5 26.5l-12 99q-63 -6 -88 57l-115 -16q-12 -39 -20 -47q-18 -16 -66 -15z" />
<glyph unicode="=" horiz-adv-x="989" d="M61 481v123l484 2l-58 -33l-8 -2l260 4l-49 -28l238 -19l-410 -61l23 31l-248 -33l22 43zM61 788l410 64l-22 -33l247 33l-22 -43l254 27v-123l-484 -2l58 32l8 5l-260 -7l49 29z" />
<glyph unicode="?" horiz-adv-x="907" d="M94 1137q18 66 47 98l160 229h45q332 -143 490 -280q2 -57 2 -240q0 -23 4 14q2 -8 2 -18q-16 -82 -152 -219q-59 -61 -157 -152l-54 -10q-31 4 -41 27q-16 33 -45 53l39 -285q-141 -8 -235 -8l-6 281l8 -2l2 16l133 152q57 -80 145 -113q37 18 82 66.5t55 82.5l-4 316 q-14 59 -63 96q-35 20 -102 43l-89 31q-61 -193 -61 -225q0 -10 2 -19q-4 -14 -4 -29q0 -55 47 -124zM197 166l8 -90q59 0 82 -80l119 -4q-6 43 21.5 69.5t70.5 26.5l-13 98q-61 -6 -88 58l-114 -17q-12 -39 -21 -47q-16 -16 -65 -14z" />
<glyph unicode="A" horiz-adv-x="1034" d="M-66 -74q49 16 62 37q6 10 24 68l193 600q-88 -6 -154 -76l50 -90l-93 100q94 129 222 148l145 456q16 51 16 78q0 78 -34 96h305q-39 -18 -39 -90q0 -25 12 -63l225 -698q35 16 113 59q-45 -84 -90 -131l82 -252q20 -63 22 -66q12 -31 39 -55l60 -35h-412l51 35 q43 10 43 62q0 12 -14 59l-53 174q-127 27 -334 223l-8 -28l-158 -490q-12 -39 -12 -61q0 -35 59 -60l-84 -4h-135zM399 641q165 -151 271 -174l-21 70l-141 471z" />
<glyph unicode="B" horiz-adv-x="858" d="M31 -31q113 35 112 123l-10 1022q-8 72 -76 103l297 124l4 15l217 82l230 -305l-45 -422l-111 -62l156 -172l-45 -381l-221 -119h-7zM352 1264l8 -471l162 -74l41 53l-24 559zM356 700l6 -641l160 45l41 54l-22 448z" />
<glyph unicode="C" d="M68 592q0 262 16 559q240 182 498 279h51l182 -228q33 -33 53 -96l-284 -219q53 72 53 125q0 14 -4 28q2 8 2 19q0 33 -72 223q-57 -25 -155 -74q-55 -37 -72 -94l-4 -846q12 -35 67 -84q49 -45 88 -63q154 49 185 106l-2 195l248 -53l4 -54q1 -4 1 -9q0 -53 -122 -152 q-162 -131 -314 -154l-61 10q-92 76 -178 152q-156 137 -174 217q-6 141 -6 213z" />
<glyph unicode="D" d="M29 4q113 35 112 123l-10 1206q-8 72 -76 103h342q-4 -2 -8 -6h21q258 -96 497 -279q16 -297 17 -559q0 -72 -6 -213q-18 -80 -175 -217q-86 -76 -178 -152l-61 -10l-17 2q4 -2 7 -2zM352 1106l8 -909l5 -15q47 -33 139 -61q41 23 88 63q55 49 67 84l-4 846 q-20 70 -112 121q-51 25 -154 76q-12 -33 -18 -102.5t-19 -102.5z" />
<glyph unicode="E" horiz-adv-x="903" d="M2 307q69 -76 139 -94l-14 1022q-63 -23 -125 -90l59 303q59 -6 76 -16q8 -4 111 -5q293 0 551 31l75 -325q-31 53 -88 89q-54 34 -112 33h-6l-316 -6q-2 -10 -2 -18l4 -416l258 2q53 8 97 117l-7 -387q-35 112 -120 112h-2l-224 -2l4 -454l308 -6h6q58 -1 112 33 q58 36 88 89l-75 -325q-258 31 -551 31q-102 0 -111 -5q-16 -10 -76 -16z" />
<glyph unicode="F" horiz-adv-x="784" d="M47 915l103 -45l-87 617h3l-5 22q211 -20 310 -20q252 0 510 31l75 -326q-31 51 -89 88q-55 35 -111 35h-6l-373 -8l6 -391l270 2q61 10 97 96l-7 -367q-35 113 -122 113l-238 -2v-361l-78 119l-8 17l12 -535l-65 102l-45 -491l-148 846l74 -49z" />
<glyph unicode="G" d="M68 674q0 221 16 518q240 182 498 278h51l182 -227q33 -33 53 -96l-284 -219q53 72 53 125q0 14 -4 28q2 8 2 19q0 33 -72 223q-57 -25 -155 -74q-55 -37 -72 -94l-4 -887q12 -35 67 -84q49 -45 88 -63q154 49 185 106l-2 355q-39 -16 -84 -17q-80 0 -180 53 q74 10 217 82q131 63 219 64q37 0 80 -4v-166l-4 6l4 -285q1 -4 1 -9q0 -53 -122 -152q-162 -131 -314 -154l-61 10q-92 76 -178 152q-156 137 -174 217q-6 141 -6 295z" />
<glyph unicode="H" horiz-adv-x="1034" d="M20 733q72 39 123 39q17 0 35 -2l-74 -29q-29 -14 -24 -39q2 -82 131 -120l-6 639q-8 72 -76 102h383q-47 -37 -47 -86l6 -659q86 29 207 100l2 575q0 51 -8 68q-16 31 -84 61l395 7q-76 -66 -82 -113l8 -461q90 47 133 47t109 -24q-72 -55 -70 -142q-41 57 -88 58 q-33 0 -82 -29l13 -739q0 -53 92 -90l-432 6q76 33 92 98l2 578q-117 -63 -207 -86l4 -408q10 -61 96 -96l-469 6q113 35 113 123l-4 395q-191 46 -191 214v7z" />
<glyph unicode="I" horiz-adv-x="415" d="M0 35q113 35 113 123l-11 1104q-8 72 -75 102h342q-47 -37 -47 -86l10 -1153q10 -61 96 -96z" />
<glyph unicode="J" d="M57 80q0 25 31 43l188 110v-8q-43 -41 -49 -75q12 -51 35 -148q10 -47 19 -45q53 6 57 8q61 14 104 53q23 20 88 68q31 23 31 39v1087q0 68 -37 111q-12 14 -39 45q55 -12 162 -12h-2l123 2h49q16 0 35 -2q-61 -2 -61 -113l2 -592l-13 -571q-74 -49 -254 -123 q-170 -72 -250 -129q-61 -45 -81 -45q-8 0 -15 6l-96 209q-27 57 -27 82z" />
<glyph unicode="K" horiz-adv-x="1007" d="M0 35q113 35 113 123l-11 1104q0 68 -75 102h342q-47 -37 -47 -86l2 -326q2 8 4 9q4 -2 6 -7q25 45 90 109q68 72 92 106l121 181q8 0 379 14q-113 -47 -131 -61q-33 -27 -154 -177l-293 -360q72 -129 254 -340q188 -219 258 -336q63 -109 170 -133q-86 4 -276 8 q-8 0 -69.5 -2t-104.5 -2q63 37 67 59q2 6 2 14q0 23 -24 54l-383 477q0 -74 -2 -39l2 -401q0 -57 96 -96z" />
<glyph unicode="L" horiz-adv-x="1079" d="M57 1356q5 1 28 1q45 0 159 -3h24q95 0 156 14q-45 -51 -55 -70q-20 -37 -21 -86q0 -268 8 -1118q0 -18 39 -33q14 -6 137 -38q150 -41 224 -41q14 0 40.5 13t22.5 13q8 -2 19 41l30 141q-6 35 -51 86v9l191 -152q32 -26 32 -51q0 -10 -24 -76l-92 -248q-4 -4 -11 -4h-4 q-59 29 -145 56q-190 59 -397 84q-150 18 -170 28q-39 20 -60 115l-20 614l2 592q0 111 -62 113z" />
<glyph unicode="M" horiz-adv-x="1441" d="M51 1407h41l326 25l45 -5q-31 -8 -31 -84q0 -8 14 -45l271 -686l295 674q25 55 24 68q0 41 -2 47q-8 27 -49 31h408q-12 -4 -54 -78l-59 -484l102 45l-77 -507l73 49l-147 -846l-45 491l-66 -102l13 535l-9 -17l-77 -119l4 588l-338 -698l-312 588l2 -498l-77 119l-9 16 l13 -534l-66 102l-45 -492l-147 846l73 -49l-77 508l102 -45l-57 487l-25 41q-16 23 -37 29z" />
<glyph unicode="N" horiz-adv-x="1177" d="M106 1368l58 -2l311 -2q-33 -8 -33 -78q0 -6 12.5 -26.5t14.5 -24.5l405 -1010v955q0 82 -61 98l-2 6h340v-2q-66 -18 -66 -102v-1137q0 -88 62 -104h-410q18 4 43 28.5t25 42.5v-1q-3 0 -31 75l-315 852l4 -598l-78 119l-8 16l12 -534l-65 102l-45 -492l-148 846l74 -49 l-78 508l102 -45l-57 481q-29 39 -66 78z" />
<glyph unicode="O" d="M68 674q0 262 16 559q240 182 498 278h51l182 -227q78 -80 90 -332q7 -127 17 -637q1 -4 1 -9q0 -53 -122 -152q-162 -131 -314 -154l-61 10q-92 76 -178 152q-156 137 -174 217q-6 141 -6 295zM332 268q12 -35 67 -84q49 -45 88 -63q154 49 185 106l-8 594 q-4 287 -101 543q-57 -25 -155 -74q-55 -37 -72 -94z" />
<glyph unicode="P" horiz-adv-x="835" d="M47 915l103 -45l-87 719h316v-110l196 82l230 -306l-45 -462l-221 -119l-158 164l2 -439l-78 119l-8 17l12 -535l-65 102l-45 -491l-148 846l74 -49zM379 1389l2 -515l141 -73l41 53l-24 600z" />
<glyph unicode="Q" d="M68 674q0 262 16 559q240 182 498 278h51l182 -227q78 -80 90 -332q6 -127 17 -637q1 -4 1 -9q0 -53 -122 -152l-23 -19l111 -158l-80 33l168 -229l-59 24l129 -229l-326 322l49 2l-137 141q-66 -29 -146 -41l-61 10q-92 76 -178 152q-156 137 -174 217q-6 141 -6 295z M332 268q12 -35 67 -84q49 -45 88 -63q64 21 105 41l-211 233l143 101l33 -50l113 -157l-6 532q-4 279 -101 543q-57 -25 -155 -74q-55 -37 -72 -94z" />
<glyph unicode="R" horiz-adv-x="784" d="M47 915l103 -45l-87 719h316v-110l156 82l249 -306l-45 -462l-161 -74q16 -158 120 -453q105 -294 156 -294q3 0 6 1q53 -4 131 -57q98 -68 164 -94q-18 -2 -39 -2q-74 0 -220 37t-220 37q-31 0 -55 -7q14 20 14 62q0 94 -84 344q-104 311 -115 356l-65 103l12 -353 l-78 119l-8 17l12 -535l-65 102l-45 -491l-148 846l74 -49zM379 1389l2 -515l100 -73l62 53l-25 600z" />
<glyph unicode="S" horiz-adv-x="923" d="M8 1143q0 16 12 24l31 37l225 180q221 176 289 177q10 0 17 -7l256 -307q53 -115 53 -151q0 -45 -51 -76l-203 -51l-2 14q23 23 53 41q10 4 14 35q-16 53 -143 163q-116 100 -166 100q-4 0 -8 -1q-27 -6 -57.5 -54t-30.5 -77q0 -25 18 -49q127 -164 402 -457 q198 -210 198 -275q0 -24 -18 -40l-23 -4l3 -17q-57 -49 -224 -182q-219 -176 -291 -176q-10 0 -14 6l-256 307q-53 115 -53 152q0 45 49 75l72 45l155 37q-29 -27 -57 -51q-31 -33 -35 -67q14 -51 111 -179q95 -126 132 -126q3 0 5 1q35 61 133 170l-16 -4q14 10 14 31 q0 47 -297 388t-297 368z" />
<glyph unicode="T" horiz-adv-x="1275" d="M37 1290l59 344q211 -20 494 -20q354 0 612 31l76 -367q-31 51 -90.5 87t-116.5 36l-262 -4l4 -998l-78 119l-8 17l12 -535l-65 102l-45 -491l-148 846l74 -49l-78 507l103 -45l-64 525l-272 -4q-10 1 -20 1q-94 0 -187 -102z" />
<glyph unicode="U" d="M0 1436q0 -3 44 -3q22 0 56 1l183 2q47 0 71.5 -4.5t22.5 -10.5q-43 -25 -43 -75q0 -16 2 -35l-4 -1043q12 -35 67 -84q49 -45 88 -63q154 49 185 106q-2 281 -8 1014q1 4 1 8q0 23 -26 62q-37 57 -39 61q49 -10 231 -12q144 -2 144 -12q-33 -37 -37 -45 q-18 -37 -18 -113q-1 -102 -1 -234q0 -263 3 -641q1 -4 1 -9q0 -53 -122 -152q-162 -131 -314 -154l-61 10q-92 76 -178 152q-156 137 -174 217q-7 181 -7 379q0 272 13 577q2 35 -21 58l-57 45z" />
<glyph unicode="V" horiz-adv-x="1208" d="M-90 1329q231 -28 347 -28q30 0 52 2l148 -529q57 -203 112 -395l314 1069q32 -3 71 -3q58 0 131 7l203 21q-158 -113 -241 -285q-45 -91 -125 -365l-234 -798l-46 -28t-75 -28q-162 -4 -258 -106l4 4q57 68 144 143l-238 813q-68 229 -84 269q-68 158 -172 208 q-10 4 -47 25z" />
<glyph unicode="W" horiz-adv-x="1439" d="M4 1350l195 6l245 -21q-80 -20 -86 -88q2 -23 4 -307l3 -315q4 -289 14 -312q23 -47 65 -47q12 0 25 2q47 84 133 205l-10 494q2 33 31 43l120 139v-12q-14 -12 -14 -25q0 -6 18.5 -28.5t18.5 -32.5q0 -340 22 -672q0 -14 27 -35.5t29 -30.5q23 -68 35 -82q29 6 184 213 q-2 27 -2 88q0 91 4 259q1 34 1 69q0 137 -13 270q-10 102 -105 125q45 0 133 -3t133 -3q31 0 89.5 3t89.5 3q-74 -33 -82 -41q-27 -20 -27 -79l6 -660l-338 -452q-10 -6 -16 -7q-45 15 -59 25l-195 264q-2 -23 -2 -10q-31 -25 -74 -100.5t-63 -92.5q-131 -102 -158 -102 q-16 0 -25 10l-217 295q-12 10 -14 223l-6 465q0 43 4 127t4 127q0 74 -127 103z" />
<glyph unicode="X" horiz-adv-x="1071" d="M-37 1315l174 117l252 -443l31 74l104 -189l103 189l30 -74l252 443l174 -117l-444 -653l20 -35l13 67l405 -770l-16 -10l-273 350l25 -114l-258 387l-16 -25l12 -63l-27 40l-28 -40l12 63l-16 25l-259 -387l25 114l-272 -350l-17 10l406 770l12 -67l21 35zM461 584l2 -2 v4z" />
<glyph unicode="Y" horiz-adv-x="1019" d="M25 1393l8 -7q11 -2 40 -2t74 2l158 7q27 2 53 0q43 -4 41 -17q-43 -25 -43 -76q0 -16 2 -34l-4 -490q12 -35 68 -84q49 -45 88 -63q154 49 184 106l-8 727q1 4 1 8q0 23 -25 62q-37 57 -39 61q49 -10 231 -12q143 -2 143 -12q-35 -41 -36 -45q-18 -33 -19 -113l2 -588 q1 -4 1 -9q0 -53 -122 -152q-55 -45 -207 -132l48 -507l-78 118l-8 17l12 -391l-66 102l13 -346l-144 557l74 -49l-98 364l102 -45l-53 193q-61 51 -148 127q-156 137 -174 217q-2 53 -2 115q0 125 8 288q2 33 -18 56q-2 4 -51 40q-10 1 -10 4q0 2 2 3z" />
<glyph unicode="Z" horiz-adv-x="1056" d="M-10 -12l721 1192l-420 -9q-139 -2 -252 -174l115 371h856l-717 -1188l448 25q145 8 273 155l-127 -360z" />
<glyph unicode="\" horiz-adv-x="923" d="M-84 1321l553 -825l-31 143l293 -446l-22 108l299 -391l-394 754l-12 -68l-242 448l-30 -73l-258 456z" />
<glyph unicode="^" horiz-adv-x="571" d="M78 1169q0 -14 12 -14q18 0 68 41q88 74 84 76q0 51 2 53q2 -2 4 -6q6 10 10 117q20 41 78 24q6 -2 72 -88l2 -90l-2 -10q-4 -10 -11 -92q-6 6 -6 10q0 20 70 43q84 27 88 27l-12 114q-31 25 -80 88.5t-80 87.5q-82 66 -103 66q-8 0 -14 -6l-178 -168q-10 -10 -4 -273z " />
<glyph unicode="a" horiz-adv-x="571" d="M29 674q35 70 127 110l135 62q-70 -76 -68 -119q-4 -29 -4 -57q0 -137 60 -217q33 -4 45 36v601l-31 -17q-10 -6 -55 -35q-76 -47 -76 -84l18 -67l-43 -2l-61 82q-33 43 -33 92q0 18 10 31q20 27 201 133q68 -49 143 -109q100 -79 100 -130q0 -5 -1 -9l-9 -467l76 -4 l-147 -166q-51 -37 -74 -37q-20 0 -14 25v73l-131 -82q-4 -1 -7 -1q-86 0 -161 358z" />
<glyph unicode="b" horiz-adv-x="600" d="M0 184l215 -10v90l156 -82l209 305l-45 463l-201 119l-117 -164l-4 481q-1 6 -1 12q0 41 46 99l-238 -20q41 -49 41 -101l-18 -1120q-10 -43 -43 -72zM213 825l104 127l62 -53q18 -162 18 -293q0 -201 -43 -307l-139 66z" />
<glyph unicode="c" horiz-adv-x="561" d="M18 535q0 -100 17 -179l207 -180l104 2l184 187l-90 114l-8 -82q-2 -20 -2 -22q-6 -33 -51 -78l-64 -64q-53 29 -69 64l-21 405l29 234q8 14 16 14q98 -90 125 -125q1 -7 1 -15q0 -49 -34 -108l189 127l-27 76l-166 109q-10 6 -39 6q-31 0 -43 -4l-229 -180 q-29 -158 -29 -301z" />
<glyph unicode="d" horiz-adv-x="636" d="M37 1030l250 141l116 -163l5 419q1 6 1 12q0 42 -47 99h238q-41 -53 -41 -100l19 -1080q10 -42 43 -71l-215 -11v91l-156 -82l-172 125zM225 672q-1 -24 -1 -47q0 -140 42 -224l140 66l2 461l-105 127l-61 -54z" />
<glyph unicode="e" horiz-adv-x="561" d="M18 596q0 143 29 301l229 180q11 4 20 4q12 0 21 -6l166 -108l58 -197l-52 -106q-80 47 -182 47q-61 0 -76 -17l15 -336q16 -35 69 -63q41 53 56 133q2 8 10 104l90 -114l-125 -178l-104 -2l-207 180q-16 78 -17 178zM229 764q38 2 69 2q62 0 95 -8l-104 235 q-14 18 -19 19q-8 0 -16 -15z" />
<glyph unicode="f" horiz-adv-x="645" d="M-57 958l18 93q33 -18 59 -19h95v203l-66 -4q57 45 146 104q70 47 92 74v-123q82 55 241 170q63 45 82 45q8 0 15 -6l96 -168q27 -59 27 -82q0 -25 -31 -43l-189 -110v8q43 41 50 76q-12 51 -35 147q-10 47 -19 45q-14 -2 -123 -96q-119 -104 -118 -148q0 -104 2 -354 q29 6 131 81t149 75q14 0 29 -6q-4 -4 -4 -11q0 -4 2 -6q8 -14 8 -16q0 -6 -10 -13q-10 2 -21 3q-31 0 -135 -94.5t-147 -104.5q8 -412 22 -655q61 -68 244 -103q-76 -16 -141 -16q-49 0 -273 53q-77 19 -132 19q-12 0 -23 -1q127 53 127 105l2 600q-102 29 -148 141 q-25 63 -25 109q0 15 3 28zM4 973q12 -139 111 -191v246l-39 -35q-27 -18 -72 -20z" />
<glyph unicode="g" horiz-adv-x="712" d="M29 897l209 305l174 -92q-2 59 -4 96q37 -29 127 -69q71 -34 71 -50l-2 -538l-12 -490q-188 -166 -342 -286q-57 -45 -82 -45q-8 0 -14 6l-97 168q-27 59 -26 82q0 25 30 43l189 110v-8q-43 -41 -49 -76q12 -51 35 -147q10 -47 18 -45q14 2 123 96q49 43 57 88v59 q0 -6 -4 398l-156 -187l-200 119zM229 496l62 -54l139 131q-4 213 -14 433l-162 90z" />
<glyph unicode="h" horiz-adv-x="665" d="M25 303l262 -6q-35 27 -35 75q0 11 2 23l4 549q135 154 154 154q10 0 16 -11l33 -86q5 -112 5 -276q0 -55 -1 -115q-2 -248 -10 -260q-6 -131 -148 -239q104 27 115 30q110 46 220 152v776l-198 135q-55 -18 -69 -30q-33 -29 -113 -150l-4 481q-1 6 -1 12q0 41 46 99 l-258 -21q41 -49 41 -100l-18 -1120q-10 -43 -43 -72z" />
<glyph unicode="i" horiz-adv-x="360" d="M23 150h282q-54 30 -54 90q0 10 1 20q16 123 22 334q3 92 3 173q0 108 -5 198h-184q14 -199 14 -363q0 -217 -22 -362q-10 -63 -57 -90zM76 1208q4 33 6 64q15 47 74 51q27 -18 63 -18q8 0 26.5 4t26.5 4q23 0 23 -187q-59 -57 -139 -65q-49 53 -80 147z" />
<glyph unicode="j" horiz-adv-x="366" d="M-338 -180q0 25 31 43l188 110v-8q-43 -41 -49 -76q12 -51 35 -147q10 -47 18 -45q12 0 123 96q119 104 119 148q0 129 -12 471q-9 249 -9 436v37q0 47 -22 82q-8 12 -53 63q33 -8 131 -8h39q151 0 143 -27q-41 -2 -49 -75v-86l2 -449l-12 -489q-115 -80 -404 -287 q-63 -45 -82 -45q-8 0 -14 6l-96 168q-27 59 -27 82zM74 1294q4 33 6 64q14 47 74 51q27 -18 63 -18q8 0 26.5 4t26.5 4q23 -1 23 -187q-59 -57 -139 -65q-49 53 -80 147z" />
<glyph unicode="k" horiz-adv-x="808" d="M-33 113l45 28q45 27 45 58l17 1259q0 12 -19.5 31.5t-21.5 26.5h248q-18 -18 -39 -58l-25 -842l356 406q12 14 13 22q0 20 -109 70q-14 2 -33 12l379 -32q-14 -6 -37 -21l-51 -59l-223 -248l182 -524q25 -68 101 -105h-250q0 10 10 35t10 37q-4 16 -18 59l-131 402 l-189 -199v-272q0 -78 115 -160q57 -31 115 -64q-92 2 -250 73t-187 71q-25 0 -53 -6z" />
<glyph unicode="l" horiz-adv-x="327" d="M63 193l9 1144q102 55 112 70l70 94l-4 -260l-8 -1061q-4 -8 -4 -16q0 -37 98 -121l-168 61q-98 37 -105 89z" />
<glyph unicode="m" horiz-adv-x="927" d="M-4 1038q94 51 129 76q70 47 108 103v-185q39 68 99 150q85 65 102 65q10 0 15 -6l116 -168q2 -2 4 -35q20 16 48 64.5t42 58.5q86 66 103 66q10 0 14 -6l117 -168q2 -2 2 -629q0 -20 -21 -27l-188 -110v8q43 41 49 76q-2 324 -18 676q-14 29 -47 28q-14 0 -31 -4 q-23 -41 -70 -106l2 -226l-2 -202q0 -6 -2 -29v-45v-19q0 -20 -20 -26l-189 -111v8q43 41 50 76q-2 324 -19 676q-14 29 -47 29q-14 0 -31 -4q-29 -55 -71 -129q-2 -60 -2 -123q0 -168 12 -357q4 -66 63 -80q-29 0 -87 2.5t-87 2.5q-18 0 -56 -3t-56 -2q53 23 63 37 q8 8 8 41l11 518q-20 49 -56 50q-8 0 -27.5 -6.5t-29.5 -4.5z" />
<glyph unicode="n" horiz-adv-x="610" d="M2 887q104 72 238 178v-184q39 47 98 108q86 66 102 66q10 0 15 -6l116 -168q2 -2 2 -670q0 -20 -20 -27l-188 -110v8q43 41 49 76q-2 344 -19 716q-14 29 -48 29q-13 0 -30 -4q-6 -2 -71 -88q-2 -64 -2 -130q0 -176 12 -370q4 -66 63 -80q-29 0 -87 2.5t-87 2.5 q-18 0 -56 -3t-56 -2q53 23 63 37q8 8 8 41l5 582z" />
<glyph unicode="o" horiz-adv-x="589" d="M29 393q-1 15 -1 36q0 118 19 439q141 102 293 156l145 -100l17 -27q45 -43 53 -184q4 -72 10 -355q1 -4 1 -8q0 -48 -113 -106q-102 -53 -168 -62l-37 6q-207 160 -219 205zM219 848l10 -539q14 -41 56 -59q61 18 84 59q0 535 -39 633l-66 -39q-35 -27 -45 -55z" />
<glyph unicode="p" horiz-adv-x="688" d="M27 453l102 -45l-86 718h254v-110l156 82l209 -305l-46 -463l-200 -119l-117 164l2 -377l-78 119l-8 16l-14 -260l-21 -242zM297 926l2 -514l100 -74l62 53l-25 600z" />
<glyph unicode="q" horiz-adv-x="688" d="M31 903l209 305l147 -67l-2 35l254 -19l-8 -110l-76 -1221l-70 125l-6 16l-24 -135l-37 -240l-94 668l90 -72l-8 287l-130 -153l-200 118zM231 502l62 -53l110 67l-14 526l-133 60z" />
<glyph unicode="r" horiz-adv-x="475" d="M2 1174q104 72 238 178v-185q106 92 139 93q10 0 14 -7l96 -168q16 -18 17 -36q0 -20 -21 -27l-188 -111v9q43 41 49 75q-8 31 -29 76q-25 53 -39 53h-2q-12 -2 -30 -26q-2 -94 -2 -187q0 -209 12 -415q4 -66 63 -80q-29 0 -87 2t-87 2q-18 0 -56 -2t-56 -2q53 23 63 37 q8 8 8 41l5 684z" />
<glyph unicode="s" horiz-adv-x="536" d="M39 385q0 25 31 43l41 25l90 20q-16 -16 -17 -41q0 -8 5.5 -35.5t3.5 -38.5q6 -24 55 -62q42 -32 64 -33q4 0 7 1q0 23 39 72l-10 -2q8 6 8 18q0 27 -158.5 210t-158.5 200q0 10 8 14l19 21q16 12 131 100q129 98 170 98q6 0 8 -4l137 -168q27 -59 27 -82q0 -25 -31 -43 l-148 -32v8q16 16 17 43q0 10 -5 38.5t-3 41.5q-6 25 -38 46t-59 21q-23 0 -45 -26.5t-22 -51.5q0 -14 8 -24q63 -82 215 -246q106 -115 107 -151q0 -14 -11 -23l-12 -2v-10q-16 -12 -131 -101q-129 -98 -170 -98q-6 0 -8 4l-137 168q-27 59 -27 82z" />
<glyph unicode="t" horiz-adv-x="413" d="M-72 1059q176 98 353 340l-5 -260h107l18 -88h-114l-19 -871q-4 -8 -4 -16q0 -37 98 -121l-167 61q-98 37 -105 89l10 866h-172z" />
<glyph unicode="u" horiz-adv-x="600" d="M41 940q0 14 10 14q20 0 70 -41q88 -74 84 -75q0 -162 16 -512q14 -29 48 -29q13 0 30 4q6 2 72 88q2 61 2 124q0 179 -13 376q-4 66 -63 80q29 0 87 -2t87 -2q18 0 56 2t57 2q-47 -20 -54 -27q-18 -14 -18 -51l-4 -582q-2 -12 -2 -24q0 -96 108 -135q-80 -2 -237 -15 v184q-39 -47 -98 -108q-86 -66 -103 -66q-10 0 -14 7l-117 167q-4 4 -4 621z" />
<glyph unicode="v" horiz-adv-x="571" d="M63 1044q0 14 11 15q20 0 69 -41q88 -74 84 -76q2 -209 17 -553q14 -29 47 -29q14 0 31 5q6 2 71 88q2 90 2 178q0 203 -12 403q-6 -6 -6 -10q0 -20 69 -43q85 -27 89 -27l-13 -503q-18 -14 -221 -177q-81 -65 -101 -65h-1q-10 0 -15 6l-116 168q-4 4 -5 661z" />
<glyph unicode="w" horiz-adv-x="907" d="M6 1069l123 4l182 -12q-51 -14 -57 -57q2 -7 2 -45q0 -56 -4 -181l-8 -260q0 -63 4 -72q14 -30 40 -30q7 0 15 2q33 53 90 131v172q0 61 2 102l2 41q2 20 21 27l106 90v-8q-10 -8 -10 -17q0 -6 11.5 -19t11.5 -19q-5 -114 -5 -238q0 -93 3 -193q0 -29 28 -94 q18 4 121 137q0 37 10 222q3 56 3 110.5t-3 106.5q-4 66 -63 79q33 0 97.5 -2t96.5 -2q18 0 56.5 2.5t56.5 1.5q-47 -20 -53 -26q-18 -14 -19 -51l-10 -396l-252 -315q-6 -4 -10 -4q-2 0 -3 2t-3 2q-4 0 -8 -4l-17 -12q10 16 10 18q-6 2 -16 10l-117 168q-2 -14 -2 -6 q-20 -16 -49 -64t-43 -59q-85 -65 -102 -65q-10 0 -15 6l-157 188q-4 4 -4 83v61q2 66 6 258q0 25 5 79t5 83q0 47 -78 65z" />
<glyph unicode="x" horiz-adv-x="741" d="M-147 102q162 37 198 95q117 184 244 393l-166 293q-25 43 -72 55l-30 31q-27 27 -80 47q45 -2 166 -37q109 -33 136 -33h3q39 -74 121 -225q47 84 149 262q25 0 305 10l-112 -43q-76 -29 -146 -151l-118 -209q94 -156 219 -350q37 -57 198 -95q-137 0 -186 2 q-78 3 -123 3h-20q-43 -2 -95 -3q35 16 72 48q2 4 -14 32l-129 226l-154 -267q-16 -29 -14 -32q2 -12 71 -50q-51 0 -94 2q-15 1 -36 1q-42 0 -107 -3q-49 -2 -186 -2z" />
<glyph unicode="y" horiz-adv-x="688" d="M-403 252q0 14 24 43q51 59 55 65q86 4 140 5q51 0 71 -5q-2 -14 -14 -18q-25 -12 -129 -37l-37 -47q68 -35 339 -35h30l102 180q14 37 15 76q0 98 -119 414q-17 19 -54 37h302q-57 -12 -60 -53l25 -144q16 -96 35 -98q12 2 159 313q-2 23 -10 27l-51 24l242 -4 q-102 -190 -256 -467q-236 -424 -275 -424q-2 0 -4 2q-256 23 -293 37q-92 12 -217 84q-20 12 -20 25z" />
<glyph unicode="z" horiz-adv-x="704" d="M41 416l551 8l92 262q-86 -102 -186 -117l-222 -32q127 131 209 272q74 127 187 397l-525 -41l-92 -268q78 107 168 107h10l207 45q-35 -156 -399 -633z" />
<glyph unicode="|" horiz-adv-x="589" d="M170 1090l76 -52l-47 594l217 -2l4 -1126l-58 133l-6 20l9 -608l-50 117l-32 -557l-111 958l55 -55z" />
<glyph unicode="&#xa1;" horiz-adv-x="503" d="M35 481q43 18 53 27q18 16 18 51l5 664l-66 -4q172 141 238 219v-185q98 92 139 93q10 0 14 -7l96 -168q16 -18 17 -36q0 -20 -21 -27l-188 -111v9q41 41 49 75q-39 139 -70 129q-12 -2 -30 -26q-10 -299 10 -623q4 -66 63 -80q-25 0 -88 2q-55 2 -86 2z" />
<glyph unicode="&#xa2;" horiz-adv-x="475" d="M2 1174q104 72 238 178v-185q106 92 139 93q10 0 14 -7l96 -168q16 -18 17 -36q0 -20 -21 -27l-188 -111v9q43 41 49 75q-8 31 -29 76q-27 57 -41 53q-12 -2 -30 -26q-8 -305 10 -602q4 -66 63 -80q-29 0 -87 2t-87 2q-18 0 -56 -2t-56 -2q53 23 63 37q8 8 8 41l5 684z " />
<glyph unicode="&#xa3;" horiz-adv-x="2048" />
<glyph unicode="&#xa4;" horiz-adv-x="423" d="M-23 942q197 172 293 365l4 -283h117l15 -86h-121l2 -834q39 -41 137 -77l80 73l-156 45h277l-170 -188q-162 53 -207 72q-111 45 -133 82l-9 827z" />
<glyph unicode="&#xa5;" horiz-adv-x="536" d="M-39 176q127 53 127 105l4 663l-65 -4q172 141 237 219v-123q106 92 139 92q10 0 15 -6l96 -168q27 -59 27 -82q0 -25 -31 -43l-188 -110v8q43 41 49 76q-51 197 -70 190q-12 -2 -31 -26q-2 -84 -2 -172q0 -266 19 -572q61 -68 243 -102q-76 -14 -141 -15q-86 0 -272 50 q-92 25 -156 20z" />
<glyph unicode="&#xa6;" horiz-adv-x="688" d="M-403 252q0 14 24 43q51 59 55 65q86 4 140 5q51 0 71 -5q-2 -14 -14 -18q-25 -12 -129 -37l-37 -47q72 -37 369 -35l102 180q14 37 15 76q0 98 -119 414q-17 19 -54 37h302q-57 -12 -60 -53l25 -144q16 -96 35 -98q12 2 159 313q-2 23 -10 27l-51 24l242 -4 q-102 -190 -256 -467q-236 -424 -275 -424q-2 0 -4 2q-256 23 -293 37q-92 12 -217 84q-20 12 -20 25z" />
<glyph unicode="&#xa7;" horiz-adv-x="3420" d="M238 915l102 -45l-86 719h315v-110l156 82l229 -306l-45 -462l-221 -119l-117 164l2 -439l-77 119l-9 17l13 -535l-66 102l-45 -491l-147 846l73 -49zM569 1389l2 -515l101 -73l41 53l-25 600zM956 393q-4 96 19 475q139 102 293 156l145 -100l17 -27q49 -47 53 -184 l10 -355q4 -33 -72 -90q-92 -70 -209 -86l-36 6l-107 84q-104 82 -113 121zM1147 848l10 -539q14 -41 55 -59q59 18 84 59q0 535 -39 633l-65 -39q-35 -27 -45 -55zM1397 1059q176 98 350 340l-4 -260h106l19 -88h-115l-18 -871q-4 -8 -4 -16q0 -37 98 -121l-166 61 q-96 35 -107 89l11 866h-170zM1786 942q197 172 291 365l4 -283h117l14 -86h-121l2 -834q41 -41 137 -77l80 73l-156 45h277l-170 -188q-160 53 -205 72q-111 45 -135 82l-8 827zM2165 596q0 143 26 301l230 180q25 8 41 -2l166 -108l57 -197l-51 -106q-80 47 -183 47 q-61 0 -75 -17l14 -336q16 -35 70 -63q43 53 57 133q2 10 8 104l90 -114l-125 -178l-104 -2l-207 180q-14 78 -14 178zM2374 764q116 6 163 -6l-104 235q-14 18 -18 19q-6 0 -17 -15zM2603 176q127 53 127 105l4 663l-65 -4q172 141 237 219v-123q106 92 139 92q10 0 15 -6 l96 -168q27 -59 27 -82q0 -25 -31 -43l-189 -110v8q43 41 50 76q-51 197 -70 190q-12 -2 -31 -26q-2 -84 -2 -172q0 -266 19 -572q61 -68 243 -102q-76 -14 -141 -15q-86 0 -272 50q-92 25 -156 20z" />
<glyph unicode="&#xad;" horiz-adv-x="989" d="M61 666l410 63l-22 -33l247 33l-22 -43l254 27v-123l-484 -2l58 33l8 4l-260 -7l49 29z" />
<glyph unicode="&#x2000;" horiz-adv-x="822" />
<glyph unicode="&#x2001;" horiz-adv-x="1645" />
<glyph unicode="&#x2002;" horiz-adv-x="822" />
<glyph unicode="&#x2003;" horiz-adv-x="1645" />
<glyph unicode="&#x2004;" horiz-adv-x="548" />
<glyph unicode="&#x2005;" horiz-adv-x="411" />
<glyph unicode="&#x2006;" horiz-adv-x="274" />
<glyph unicode="&#x2007;" horiz-adv-x="274" />
<glyph unicode="&#x2008;" horiz-adv-x="205" />
<glyph unicode="&#x2009;" horiz-adv-x="329" />
<glyph unicode="&#x200a;" horiz-adv-x="91" />
<glyph unicode="&#x2010;" horiz-adv-x="989" d="M61 666l410 63l-22 -33l247 33l-22 -43l254 27v-123l-484 -2l58 33l8 4l-260 -7l49 29z" />
<glyph unicode="&#x2011;" horiz-adv-x="989" d="M61 666l410 63l-22 -33l247 33l-22 -43l254 27v-123l-484 -2l58 33l8 4l-260 -7l49 29z" />
<glyph unicode="&#x2012;" horiz-adv-x="989" d="M61 666l410 63l-22 -33l247 33l-22 -43l254 27v-123l-484 -2l58 33l8 4l-260 -7l49 29z" />
<glyph unicode="&#x2013;" horiz-adv-x="1146" d="M61 666l484 63l-26 -33l292 33l-26 -43l300 27v-123l-572 -2l69 33l9 4l-307 -7l58 29z" />
<glyph unicode="&#x2014;" horiz-adv-x="2170" d="M61 666l968 63l-51 -33l583 33l-52 -43l600 27v-123l-1143 -2l137 33l19 4l-615 -7l116 29z" />
<glyph unicode="&#x2018;" horiz-adv-x="360" d="M2 1446h324q-63 -35 -54 -111q2 -23 4 -22v18q-2 18 -2 12q-2 -6 0 -55q2 -80 -28 -149q-33 -76 -35 -119h-102q6 72 -21 141.5t-27 118.5q0 57 2 61q6 -12 3 -18q-2 4 -7 33q-10 63 -57 90z" />
<glyph unicode="&#x2019;" horiz-adv-x="360" d="M2 1446h324q-63 -35 -54 -111q2 -23 4 -22v18q-2 18 -2 12q-2 -6 0 -55q2 -80 -28 -149q-33 -76 -35 -119h-102q6 72 -21 141.5t-27 118.5q0 57 2 61q6 -12 3 -18q-2 4 -7 33q-10 63 -57 90z" />
<glyph unicode="&#x201c;" horiz-adv-x="745" d="M2 1446h324q-63 -35 -54 -111q2 -23 4 -22v18q-2 18 -2 12q-2 -6 0 -55q2 -80 -28 -149q-33 -76 -35 -119h-102q6 72 -21 141.5t-27 118.5q0 57 2 61q6 -12 3 -18q-2 4 -7 33q-10 63 -57 90zM391 1446h324q-63 -35 -53 -111q2 -23 4 -22v18q-2 18 -2 12q-2 -6 0 -55 q2 -80 -29 -149q-33 -76 -35 -119h-102q6 72 -20.5 141.5t-26.5 118.5q0 57 2 61q6 -12 2 -18q-2 4 -6 33q-11 63 -58 90z" />
<glyph unicode="&#x201d;" horiz-adv-x="745" d="M2 1446h324q-63 -35 -54 -111q2 -23 4 -22v18q-2 18 -2 12q-2 -6 0 -55q2 -80 -28 -149q-33 -76 -35 -119h-102q6 72 -21 141.5t-27 118.5q0 57 2 61q6 -12 3 -18q-2 4 -7 33q-10 63 -57 90zM391 1446h324q-63 -35 -53 -111q2 -23 4 -22v18q-2 18 -2 12q-2 -6 0 -55 q2 -80 -29 -149q-33 -76 -35 -119h-102q6 72 -20.5 141.5t-26.5 118.5q0 57 2 61q6 -12 2 -18q-2 4 -6 33q-11 63 -58 90z" />
<glyph unicode="&#x202f;" horiz-adv-x="329" />
<glyph unicode="&#x205f;" horiz-adv-x="411" />
<glyph unicode="&#xe000;" horiz-adv-x="1013" d="M0 0v1014h1014v-1014h-1014z" />
</font>
</defs>
</svg>
